<svg xmlns="http://www.w3.org/2000/svg" width="500" viewBox="0 0 375 375" height="500" version="1.0"><path fill="#dcddde" d="M181.879 109.984c0 41.829-33.922 75.743-75.75 75.743-41.856 0-75.766-33.907-75.766-75.743s33.91-75.746 75.766-75.746c41.828-.008 75.75 33.91 75.75 75.746M348.156 109.984c0 41.829-33.914 75.743-75.754 75.743-41.843 0-75.754-33.907-75.754-75.743s33.91-75.746 75.754-75.746c41.84 0 75.754 33.91 75.754 75.746M181.879 275.531c0 41.836-33.922 75.75-75.75 75.75-41.856 0-75.766-33.914-75.766-75.75s33.91-75.746 75.766-75.746c41.828 0 75.75 33.91 75.75 75.746"/><path fill="#00aeef" d="M348.156 275.531c0 41.836-33.914 75.75-75.754 75.75-41.843 0-75.754-33.914-75.754-75.75s33.91-75.746 75.754-75.746c41.84 0 75.754 33.91 75.754 75.746"/></svg>