<svg xmlns="http://www.w3.org/2000/svg" width="180" height="60" viewBox="0 0 300 80" xml:space="preserve">
    <path fill="#DCDDDE" d="M38.001 23.057c0 7.302-5.92 13.222-13.221 13.222-7.305 0-13.223-5.919-13.223-13.222S17.475 9.834 24.78 9.834c7.301-.001 13.221 5.92 13.221 13.223M67.022 23.057c0 7.302-5.919 13.222-13.222 13.222S40.579 30.36 40.579 23.057 46.497 9.834 53.8 9.834s13.222 5.92 13.222 13.223M38.001 51.956c0 7.303-5.92 13.223-13.221 13.223-7.305 0-13.223-5.92-13.223-13.223s5.918-13.223 13.223-13.223c7.301 0 13.221 5.92 13.221 13.223"/>
    <path fill="#00AEEF"
          d="M67.022 51.956c0 7.303-5.919 13.223-13.222 13.223s-13.221-5.92-13.221-13.223S46.497 38.733 53.8 38.733s13.222 5.92 13.222 13.223"/>
    <path fill="current" d="M205.776 26.269c-.016-6.716-5.467-12.142-12.182-12.126-6.708.008-12.135 5.458-12.127 12.174.016 6.708 5.467 12.143 12.174 12.127 6.708-.016 12.142-5.46 12.135-12.175m-12.144 7.578c-4.167 0-7.553-3.37-7.562-7.538a7.548 7.548 0 0 1 7.539-7.57c4.168-.008 7.554 3.37 7.563 7.539.007 4.167-3.37 7.561-7.54 7.569M216.873 13.573h4.645v24.64h-4.645zM202.634 47.809h-4.642V63.124h23.525v-4.637h-18.883zM149.985 26.348c-.008-6.716-5.458-12.142-12.166-12.126-6.715.008-12.15 5.458-12.135 12.174.017 6.708 5.467 12.142 12.175 12.126 6.715-.016 12.141-5.466 12.126-12.174m-12.135 7.57a7.557 7.557 0 0 1-7.569-7.53c0-4.169 3.37-7.563 7.547-7.57 4.168-.008 7.546 3.37 7.562 7.539-.001 4.167-3.37 7.553-7.54 7.561M153.101 40.452c-6.715.01-12.142 5.459-12.125 12.174.007 6.709 5.458 12.143 12.165 12.135 6.715-.023 12.142-5.465 12.135-12.182-.016-6.707-5.467-12.143-12.175-12.127m.031 19.697c-4.167.016-7.553-3.361-7.562-7.531a7.552 7.552 0 0 1 7.539-7.568c4.168 0 7.554 3.369 7.563 7.537a7.553 7.553 0 0 1-7.54 7.562M158.441 13.565h-.879v23.621h4.645v-7.16h10.749v-4.651h-10.749v-7.159h10.749v-4.651h-10.749zM269.475 13.565H257.935v23.621h4.643v-18.97h4.572v18.97h4.643V13.565zM267.15 43.167h-18.327v4.642h18.327v14.334h4.643V43.167h-2.318zM254.502 32.526h-4.645V18.264h4.645v-4.643h-23.621v4.643h4.889v14.262h-4.889v4.645h23.62v-4.645zm-9.295 0h-4.8V18.264h4.8v14.262zM99.455 30.366c0-6.716-5.458-12.142-12.165-12.134-6.708.016-12.143 5.466-12.127 12.174.008 6.716 5.467 12.144 12.166 12.136 6.715-.016 12.141-5.467 12.126-12.176m-12.126 7.572a7.554 7.554 0 0 1-7.57-7.54c-.008-4.168 3.37-7.562 7.539-7.562 4.168-.008 7.554 3.37 7.562 7.538a7.547 7.547 0 0 1-7.531 7.564M94.558 47.809h-4.642V63.124h23.524v-4.637H94.558zM107.349 13.565h-.87v23.621h4.644v-18.97h10.749v-4.651h-10.749zM101.694 13.66H89.543V9.42h-4.541v4.24H72.924v4.548h28.77z"/>
</svg>